<svg id="Layer_1" data-name="Layer 1" xmlns="http://www.w3.org/2000/svg" viewBox="0 0 400 300"><path d="M74.65,205.26s.77,11.31,6.13,8.37-1.35-8.37-1.35-8.37Z" fill="#f4a28c"/><rect x="100" y="47.23" width="200.88" height="155.79" fill="#e6e6e6"/><rect x="116.57" y="111.8" width="39.83" height="14.41" fill="#c9c9c9" opacity="0.39"/><rect x="184.14" y="141.59" width="41.8" height="46.81" fill="#c9c9c9" opacity="0.2"/><rect x="114.95" y="141.59" width="41.8" height="46.81" fill="#c9c9c9" opacity="0.2"/><rect x="245.91" y="112.45" width="46.92" height="75.95" fill="#c9c9c9" opacity="0.2"/><path d="M100.56,101.83s7.83-1.53,9.33,9-2.59,18.71,9.66,20.59,26.56-7,33.71,12.08S160.74,203,160.74,203h-34l-31-79.67Z" opacity="0.08"/><ellipse cx="104.26" cy="255.92" rx="64.31" ry="8.5" fill="#e6e6e6" opacity="0.45"/><ellipse cx="300.28" cy="255.29" rx="65.45" ry="8.5" fill="#e6e6e6" opacity="0.45"/><path d="M58.73,245.8s-8.51-2.33-10.37-10.25c0,0,13.2-2.67,13.57,10.95Z" fill="#68e1fd" opacity="0.58"/><path d="M59.78,245s-6-9.4-.72-18.2c0,0,10,6.37,5.58,18.22Z" fill="#68e1fd" opacity="0.73"/><path d="M61.31,245S64.45,235,74,233.14c0,0,1.78,6.45-6.15,11.85Z" fill="#68e1fd"/><polygon points="55.13 244.74 56.86 256.55 67.73 256.59 69.33 244.79 55.13 244.74" fill="#24285b"/><path d="M91.19,131.77s-38,27-17.43,73.49h5.67s-3-33.73,11.76-49.7S91.19,131.77,91.19,131.77Z" fill="#68e1fd"/><path d="M91.19,131.77s-38,27-17.43,73.49h5.67s-3-33.73,11.76-49.7S91.19,131.77,91.19,131.77Z" fill="#fff" opacity="0.2"/><polygon points="101.56 117.19 104.79 126.89 97.11 131.77 94.35 114.96 101.56 117.19" fill="#f4a28c"/><path d="M92.1,109.09a4.75,4.75,0,0,1,7.85-1.31c2.57,2.74,5.67,7.1,2.17,9.47-5.36,3.64-10.28-3.15-10.28-3.15A8.71,8.71,0,0,1,92.1,109.09Z" fill="#f4a28c"/><path d="M96.7,111.53s-1.75-1.46-2.54.61,2.3,3.08,3.22,2S96.7,111.53,96.7,111.53Z" fill="#f4a28c"/><rect x="66.22" y="181.02" width="38.68" height="26.96" transform="translate(-46.25 27.83) rotate(-14.59)" fill="#ffd200"/><polygon points="82.7 181.32 88.7 198.99 88.38 207.7 97 205.51 100.83 189.81 90.39 179.31 82.7 181.32" opacity="0.08"/><path d="M88.15,136.53a19.62,19.62,0,0,1,12.31-10.75c10.43-3.13,29.63.3,35.49,10.06,8,13.35-3.72,55.78-3.72,55.78l-35,2.72S77.9,159.57,88.15,136.53Z" fill="#68e1fd"/><polygon points="132.23 191.62 127.62 251.88 120.33 251.88 113.82 205.06 97.71 194.34 132.23 191.62" fill="#24285b"/><polygon points="97.71 194.34 87.65 251.88 95.47 251.88 112.34 204.08 97.71 194.34" fill="#24285b"/><rect x="208.23" y="113.99" width="17.7" height="20.98" fill="#c9c9c9"/><path d="M103.49,124.87s-16.39,52.8,31,56.3l-2.21,10.45-35,2.72S84.83,175,85.35,147.71c0,0,.3-13.47,9.78-19.42A21.27,21.27,0,0,1,103.49,124.87Z" opacity="0.08"/><path d="M89.48,251.76l-4.7,3.47a1,1,0,0,0,.61,1.86h7.89a1,1,0,0,0,1-1v-4.3Z" fill="#68e1fd"/><path d="M126.71,251.76l4.43,3.46a1,1,0,0,1-.65,1.87h-5.61a3,3,0,0,1-3-3v-2.34Z" fill="#68e1fd"/><path d="M92.3,116.18s1.71,3.1,4.54,2.14.79-7.65.79-7.65,3.42-4.93,2.93-8.84a2.2,2.2,0,0,0-4.17-.54,3.88,3.88,0,0,1-3.29,2C88.29,103.85,83.87,111.45,92.3,116.18Z" fill="#24285b"/><path d="M116.8,140.51a9.12,9.12,0,0,1,12.8-11.76c5.72,3.23,11.48,8.95,13.73,19.05,5.11,22.85,6.51,50.55,6.51,50.55L144,199s-6.46-28.47-17.49-44C123.84,151.33,119.07,145.5,116.8,140.51Z" fill="#68e1fd"/><path d="M116.8,140.51a9.12,9.12,0,0,1,12.8-11.76c5.72,3.23,11.48,8.95,13.73,19.05,5.11,22.85,6.51,50.55,6.51,50.55L144,199s-6.46-28.47-17.49-44C123.84,151.33,119.07,145.5,116.8,140.51Z" fill="#fff" opacity="0.2"/><path d="M145.14,198.86s-3,8.36.79,8.82c5,.59,3.91-9.33,3.91-9.33Z" fill="#f4a28c"/><path d="M303.09,197.36s1.83-86-3.59-93.84c0,0-4.7-1.34-6.38,5.83s-2.6,9.22.9,11,1.66,11.64-4.71,11.4-14.47-2.2-17.59,3.2-4.76,40.5-17.78,31.94-12.75-31.6-12.75-31.6L217.93,135v18.55l18.1-.36s2.33,31.56,27.78,38.61a9.66,9.66,0,0,1,6.72,12.28" opacity="0.08"/><path d="M298.35,128.17s-14.8-2-17.77,10.39-3.39,29.49-15.28,32.92-18.46-20.35-18.46-20.35-2.76-6.67-5.73-7.58-5.1,5.67,0,9.7c0,0,4.29,30.35,27.08,29.29S298.35,150.19,298.35,128.17Z" fill="#f4a28c"/><path d="M298.35,128.17s-14.8-2-17.77,10.39-3.39,29.49-15.28,32.92-18.46-20.35-18.46-20.35-2.76-6.67-5.73-7.58-5.1,5.67,0,9.7c0,0,4.29,30.35,27.08,29.29S298.35,150.19,298.35,128.17Z" opacity="0.08"/><path d="M298.35,128.17s-15.88-3.14-18.11,9.7a96.22,96.22,0,0,1-6.16,21.44l12.14,3.93Z" fill="#68e1fd"/><path d="M298.35,128.17s-15.88-3.14-18.11,9.7a96.22,96.22,0,0,1-6.16,21.44l12.14,3.93Z" fill="#fff" opacity="0.46"/><path d="M299,106.66a33.46,33.46,0,0,0-2.68,8.5,2.7,2.7,0,0,0,2.41,3,6,6,0,0,0,5.92-2.59l3.13-3.84a4.81,4.81,0,0,0-.2-5.56C305.53,103,300.29,103.64,299,106.66Z" fill="#f4a28c"/><polygon points="305.87 112.57 306.99 128.17 298.35 128.17 300.94 117.1 305.87 112.57" fill="#f4a28c"/><path d="M297.61,110.32l-1.88,1.26a.77.77,0,0,0,0,1.3l1.59,1Z" fill="#f4a28c"/><path d="M300.86,117.42a5.84,5.84,0,0,0,2.82-1.35s.56,3.38-3.56,4.52Z" fill="#ce8172" opacity="0.31"/><path d="M303.47,112.36s.76-1.92,2.16-1.23.33,3.47-1.75,3Z" fill="#f4a28c"/><polygon points="282.74 217.01 275.43 250.23 279.68 250.23 293.9 217.01 282.74 217.01" fill="#f4a28c"/><polygon points="306.52 212.98 314.31 250.23 318.59 250.23 317.94 212.71 306.52 212.98" fill="#f4a28c"/><path d="M275.43,250.23s-2.36,3-5.38,2.84-3.46,4.12,1.4,3.68a27.09,27.09,0,0,0,4.47-.77,8,8,0,0,1,4.1.14,1.28,1.28,0,0,0,1.38-.55c1.38-1.62-2-5.34-2-5.34Z" fill="#68e1fd"/><path d="M318.27,250.23s2.36,3,5.38,2.84,3.46,4.12-1.39,3.68a27.43,27.43,0,0,1-4.48-.77,8,8,0,0,0-4.09.14,1.28,1.28,0,0,1-1.38-.55c-1.38-1.62,2-5.34,2-5.34Z" fill="#68e1fd"/><path d="M298.35,128.17H307s.59,0,1.61,0c18.85.6,29.8,21.54,19.79,37.52-5.57,8.89-12.21,20.87-12.66,28L282.14,192s2.55-21.79-3.68-34.24C278.46,157.78,267,138.18,298.35,128.17Z" fill="#68e1fd"/><path d="M313.36,139.58s-4.18,8.64-5.17,24.17-24.57-2.81-24.57-2.81l-1.08,25.65,34.3,1.81,2.85-10.4S328.69,161.91,313.36,139.58Z" opacity="0.08"/><rect x="279.8" y="147.75" width="22.54" height="34.83" transform="translate(599.4 295.33) rotate(173.32)" fill="#ffd200"/><rect x="283.91" y="145.66" width="10.49" height="5.11" transform="translate(593.6 261.76) rotate(173.32)" fill="#24285b"/><polygon points="282.54 186.59 316.84 188.4 326 223.15 276.42 221.38 282.54 186.59" fill="#24285b"/><polygon points="279.24 160.98 303.05 170.48 304.3 181.16 281.91 183.78 279.24 160.98" opacity="0.08"/><path d="M313.64,141.24a7.31,7.31,0,0,1,12.95-4.93,31.35,31.35,0,0,1,7.24,20.87c-.28,20.33-3,42.34-46.88,18.29l2.36-6.45s19.47,9.36,27.6,6.32C322.89,173.11,314.26,155.2,313.64,141.24Z" fill="#f4a28c"/><path d="M289.31,169s-7.31-3.47-10.42,0,1.84,6.59,8.06,6.45Z" fill="#f4a28c"/><path d="M298.19,104.09l-1.69,4.21,7,2.68s.4,4.69-2.07,5.54a4.27,4.27,0,0,0,3-1.45,1.67,1.67,0,0,1,2.33-.14l.09.07a14.94,14.94,0,0,0,4.05-7.17c.8-4.14-3.81-4.78-3.81-4.78S300.93,98.75,298.19,104.09Z" fill="#24285b"/><path d="M307.06,103.05s.31-4,7.47-3.34,0,10.31,5.89,19.32c0,0-10.82-2.29-11.14-12Z" fill="#24285b"/><path d="M306.61,102.77a3.17,3.17,0,0,1,3.46.29c2,1.29,2.92,6-.27,7.58C309.8,110.64,312.45,104.3,306.61,102.77Z" fill="#ffd200"/><path d="M316.42,163.24H335.1s2-27.27-13.41-30.76S316.42,163.24,316.42,163.24Z" fill="#68e1fd"/><rect x="234.45" y="69.64" width="3.4" height="121.98" fill="#c9c9c9"/><path d="M316.42,163.24H335.1s2-27.27-13.41-30.76S316.42,163.24,316.42,163.24Z" fill="#fff" opacity="0.46"/><rect x="227.18" y="132.11" width="20.43" height="17.05" transform="translate(474.79 281.27) rotate(-180)" fill="#68e1fd"/><rect x="260.54" y="85.36" width="20.43" height="17.05" transform="translate(541.51 187.77) rotate(-180)" fill="#68e1fd"/><rect x="124.59" y="87.56" width="20.91" height="17.45" transform="translate(270.09 192.57) rotate(-180)" fill="#24285b"/><rect x="132.69" y="83.53" width="4.82" height="8.25" fill="#fff" opacity="0.26"/><rect x="175.99" y="159.53" width="20.91" height="17.45" transform="translate(372.9 336.51) rotate(-180)" fill="#24285b"/><rect x="184.09" y="155.49" width="4.82" height="8.25" fill="#fff" opacity="0.26"/><rect x="192.98" y="87.1" width="20.91" height="17.45" transform="translate(406.88 191.65) rotate(-180)" fill="#ffd200"/><rect x="201.08" y="83.06" width="4.82" height="8.25" fill="#fff" opacity="0.26"/><rect x="267.91" y="82.72" width="4.82" height="8.25" fill="#fff" opacity="0.26"/><rect x="168.57" y="69.64" width="3.4" height="121.98" fill="#c9c9c9"/><rect x="116.82" y="61.64" width="35.23" height="9.7" fill="#c9c9c9"/><rect x="184.23" y="61.64" width="35.23" height="9.7" fill="#c9c9c9" opacity="0.58"/><rect x="251.56" y="61.64" width="35.23" height="9.7" fill="#c9c9c9" opacity="0.3"/><rect x="184.23" y="116.88" width="18.39" height="6.19" fill="#c9c9c9" opacity="0.58"/><rect x="184.23" y="127.93" width="18.39" height="6.19" fill="#c9c9c9" opacity="0.58"/></svg>